<?xml version="1.0" encoding="iso-8859-1"?>
<!-- Generator: Adobe Illustrator 19.0.0, SVG Export Plug-In . SVG Version: 6.00 Build 0)  -->
<svg version="1.1" id="Capa_1" xmlns="http://www.w3.org/2000/svg" xmlns:xlink="http://www.w3.org/1999/xlink" x="0px" y="0px"
	 viewBox="0 0 512 512" style="enable-background:new 0 0 512 512;" xml:space="preserve">
<g>
	<g>
		<path d="M362.039,0H149.961L0,149.962v212.076L149.961,512h212.078L512,362.038V149.962L362.039,0z M361.093,41.48L470.52,150.907
			l-38.001,15.74L345.353,79.48L361.093,41.48z M334.52,207.24l-50.803,21.043l21.043-50.803L334.52,207.24z M317.186,147.481
			l15.74-38l69.593,69.593l-38,15.74L317.186,147.481z M346,234.957v42.086L295.197,256L346,234.957z M289.47,136h-66.94l-15.74-38
			h98.42L289.47,136z M256,216.803L234.957,166h42.086L256,216.803z M277.043,346h-42.086L256,295.197L277.043,346z M207.24,177.48
			l21.043,50.803L177.48,207.24L207.24,177.48z M216.803,256L166,277.043v-42.086L216.803,256z M147.481,194.814l-38.001-15.74
			l69.593-69.593l15.741,38L147.481,194.814z M136,222.531v66.939l-38,15.74v-98.419L136,222.531z M147.481,317.186l47.333,47.333
			l-15.74,38l-69.593-69.593L147.481,317.186z M177.48,304.76l50.803-21.043L207.24,334.52L177.48,304.76z M222.53,376h66.939
			l15.74,38h-98.42L222.53,376z M304.76,334.52l-21.043-50.803l50.803,21.043L304.76,334.52z M364.519,317.186l38.001,15.74
			l-69.593,69.593l-15.741-38L364.519,317.186z M376,289.469V222.53l38-15.74v98.419L376,289.469z M333.377,30l-15.741,38H194.364
			l-15.74-38H333.377z M150.907,41.481l15.74,38l-87.166,87.167l-38-15.74L150.907,41.481z M30,178.624l38,15.74v123.272l-38,15.74
			V178.624z M150.907,470.52L41.48,361.093l38.001-15.74l87.166,87.167L150.907,470.52z M178.624,482l15.74-38h123.272l15.74,38
			H178.624z M361.093,470.519l-15.74-38l87.166-87.167l38,15.74L361.093,470.519z M482,333.376l-38-15.74V194.364l38-15.74V333.376z
			"/>
	</g>
</g>
<g>
</g>
<g>
</g>
<g>
</g>
<g>
</g>
<g>
</g>
<g>
</g>
<g>
</g>
<g>
</g>
<g>
</g>
<g>
</g>
<g>
</g>
<g>
</g>
<g>
</g>
<g>
</g>
<g>
</g>
</svg>
